<svg width="177" height="43" viewBox="0 0 177 43" xmlns="http://www.w3.org/2000/svg" xmlns:sketch="http://www.bohemiancoding.com/sketch/ns"><title>logo-light</title><desc>Created with Sketch.</desc><g sketch:type="MSLayerGroup" fill="#fff"><path d="M18.758 29.127c-1.004 1.213-2.143 2.105-3.412 2.681-1.27.577-2.643.863-4.119.863-1.569 0-3.016-.265-4.346-.795-1.326-.533-2.467-1.278-3.412-2.239-.943-.961-1.686-2.098-2.213-3.413-.535-1.313-.797-2.752-.797-4.32 0-1.566.262-3.006.797-4.321.527-1.314 1.27-2.451 2.213-3.412.945-.961 2.086-1.707 3.412-2.239 1.33-.532 2.777-.796 4.346-.796 1.506 0 2.898.309 4.187.929 1.285.623 2.426 1.494 3.432 2.615l-2.127 1.596c-.768-.856-1.609-1.528-2.525-2.016-.916-.488-1.907-.733-2.967-.733-1.244 0-2.365.224-3.367.667-1.006.442-1.862 1.039-2.573 1.793-.709.754-1.248 1.639-1.617 2.66-.371 1.018-.555 2.105-.555 3.257 0 1.154.184 2.238.555 3.256.369 1.022.908 1.906 1.617 2.659.711.754 1.567 1.353 2.573 1.796 1.002.444 2.123.664 3.367.664 1.121 0 2.148-.256 3.08-.774.93-.517 1.736-1.205 2.412-2.061l2.039 1.683z" sketch:type="MSShapeGroup"/><path d="M24.43 21.905c0 1.153.184 2.237.553 3.256.369 1.021.908 1.906 1.619 2.659.709.754 1.564 1.353 2.57 1.796 1.002.443 2.123.664 3.367.664 1.243 0 2.364-.221 3.368-.664 1.003-.443 1.863-1.042 2.57-1.796.711-.753 1.248-1.638 1.619-2.659.367-1.019.551-2.103.551-3.256 0-1.152-.184-2.239-.551-3.258-.371-1.02-.908-1.905-1.619-2.659-.707-.754-1.567-1.352-2.57-1.793-1.004-.443-2.125-.667-3.368-.667-1.244 0-2.365.224-3.367.667-1.006.441-1.861 1.039-2.57 1.793-.711.754-1.25 1.639-1.619 2.659-.369 1.019-.553 2.106-.553 3.258m-2.658 0c0-1.566.263-3.006.797-4.321.531-1.315 1.267-2.451 2.213-3.412.945-.961 2.086-1.707 3.414-2.24 1.33-.531 2.777-.796 4.343-.796 1.565 0 3.004.265 4.323.796 1.312.533 2.449 1.279 3.41 2.24.961.961 1.707 2.097 2.236 3.412.533 1.315.801 2.755.801 4.321 0 1.567-.268 3.007-.801 4.319-.529 1.316-1.275 2.452-2.236 3.413-.961.961-2.098 1.706-3.41 2.24-1.319.53-2.758.795-4.323.795-1.566 0-3.013-.265-4.343-.795-1.328-.534-2.469-1.279-3.414-2.24-.946-.961-1.682-2.097-2.213-3.413-.534-1.312-.797-2.752-.797-4.319" sketch:type="MSShapeGroup"/><path d="M74.398 17.429c0-.384-.014-.851-.043-1.396-.031-.546-.055-1.101-.068-1.663-.016-.561-.037-1.084-.065-1.572-.029-.488-.043-.866-.043-1.129h2.657c.029.767.05 1.504.066 2.216.014.708.053 1.165.109 1.373h.135c.531-1.124 1.418-2.09 2.66-2.904 1.238-.814 2.688-1.218 4.34-1.218 1.598 0 2.895.249 3.902.754 1.004.504 1.791 1.16 2.37 1.971.576.811.972 1.752 1.197 2.814.22 1.064.332 2.155.332 3.279v12.187h-2.658v-12.056c0-.824-.077-1.63-.223-2.412-.148-.782-.404-1.486-.775-2.105-.368-.62-.885-1.117-1.551-1.487-.664-.367-1.529-.553-2.594-.553-.973 0-1.896.172-2.771.511-.868.339-1.622.857-2.254 1.549-.641.696-1.143 1.568-1.51 2.615-.371 1.05-.555 2.285-.555 3.702v10.236h-2.658v-14.712z" sketch:type="MSShapeGroup"/><path d="M99.48 11.669h2.658v20.472h-2.658v-20.472zm-.662-8.112c0-.559.19-1.032.573-1.418.386-.383.859-.575 1.42-.575.56 0 1.033.192 1.418.575.382.386.578.859.578 1.418 0 .562-.196 1.034-.578 1.42-.385.384-.858.575-1.418.575-.561 0-1.034-.191-1.42-.575-.383-.386-.573-.858-.573-1.42z" sketch:type="MSShapeGroup"/><path d="M124.164 16.72c-.74-.77-1.516-1.352-2.326-1.751-.813-.399-1.783-.599-2.904-.599-1.092 0-2.045.2-2.856.599-.816.399-1.494.945-2.043 1.638-.543.696-.959 1.494-1.24 2.394-.279.901-.416 1.838-.416 2.815 0 .973.16 1.898.484 2.769.326.872.783 1.633 1.373 2.281.588.652 1.301 1.162 2.129 1.529.826.37 1.758.556 2.791.556 1.121 0 2.082-.199 2.879-.598.799-.4 1.535-.985 2.217-1.751l2.836 2.835c-1.037 1.152-2.237 1.979-3.61 2.481-1.377.504-2.834.753-4.369.753-1.623 0-3.107-.264-4.453-.795-1.34-.533-2.504-1.278-3.478-2.239-.977-.961-1.727-2.111-2.26-3.455-.529-1.347-.795-2.83-.795-4.455 0-1.623.266-3.116.795-4.477.533-1.357 1.275-2.525 2.24-3.499.961-.977 2.11-1.735 3.455-2.284 1.346-.546 2.846-.819 4.496-.819 1.535 0 3.01.273 4.41.819 1.405.549 2.624 1.381 3.659 2.504l-3.014 2.749z" sketch:type="MSShapeGroup"/><path d="M130.812 11.136h3.988v21.005h-3.988v-21.005zm-.931-7.535c0-.795.287-1.482.863-2.06.576-.576 1.262-.864 2.063-.864.797 0 1.482.288 2.06.864.576.578.863 1.265.863 2.06 0 .799-.287 1.486-.863 2.062-.578.575-1.263.863-2.06.863-.801 0-1.487-.288-2.063-.863-.576-.576-.863-1.263-.863-2.062z" sketch:type="MSShapeGroup"/><path d="M152.393 14.593h-5.715v9.527c0 .591.014 1.174.043 1.749.027.578.141 1.095.33 1.552.192.459.488.829.887 1.108.396.281.982.422 1.752.422.471 0 .959-.045 1.463-.133.5-.09.961-.25 1.375-.489v3.636c-.479.266-1.088.449-1.84.552-.754.104-1.34.154-1.754.154-1.537 0-2.723-.212-3.566-.641-.84-.43-1.459-.981-1.862-1.661-.398-.68-.634-1.441-.711-2.284-.07-.843-.107-1.688-.107-2.547v-10.945h-4.608v-3.457h4.608v-5.894h3.99v5.894h5.715v3.457z" sketch:type="MSShapeGroup"/><path d="M64.674 24.806c-.432.992-1.008 1.849-1.729 2.57-.726.725-1.582 1.3-2.572 1.731-.992.428-2.047.64-3.168.64s-2.179-.212-3.166-.64c-.992-.431-1.849-1.006-2.574-1.731-.725-.721-1.301-1.578-1.727-2.57-.427-.989-.64-2.045-.64-3.169 0-1.121.213-2.179.64-3.169.426-.986 1.002-1.843 1.727-2.567.725-.725 1.582-1.302 2.574-1.73.987-.428 2.045-.643 3.166-.643s2.176.215 3.168.643c.99.428 1.846 1.005 2.572 1.73.721.724 1.297 1.581 1.729 2.567.426.99.641 2.048.641 3.169 0 1.124-.215 2.18-.641 3.169zm.551-13.137v3.455h-.086c-.77-1.239-1.813-2.215-3.125-2.924-1.315-.709-2.86-1.064-4.633-1.064-1.504 0-2.926.281-4.254.843-1.328.559-2.486 1.312-3.478 2.258-.989.947-1.772 2.055-2.346 3.323-.578 1.27-.867 2.631-.867 4.077 0 1.449.289 2.807.867 4.077.574 1.271 1.357 2.387 2.346 3.348.992.961 2.15 1.712 3.478 2.258 1.328.548 2.75.821 4.254.821 1.773 0 3.318-.355 4.633-1.064 1.312-.708 2.355-1.684 3.125-2.923h.086v2.835c0 .383-.016.887-.045 1.504-.027.623-.125 1.281-.289 1.974-.16.696-.414 1.389-.752 2.085-.34.692-.813 1.325-1.418 1.903-.604.578-1.373 1.042-2.303 1.397-.887.336-1.978.504-3.258.519h-8.062v2.392h8.062c.991-.016 2.077-.152 3.28-.431 1.267-.296 2.459-.869 3.564-1.727 1.113-.859 2.035-2.066 2.77-3.636.74-1.564 1.113-3.617 1.113-6.156v-19.144h-2.662z" sketch:type="MSShapeGroup"/><path d="M171.935 11.136l-5.965 16.396h-.092l-6.218-16.396h-4.61l8.696 21.139-1.293 3.321c-.206.533-.409 1.006-.618 1.42-.203.413-.464.775-.771 1.087-.309.31-.672.544-1.1.707-.33.126-.769.162-1.22.191h-6.217v3.776h6.545c1.084 0 2.006-.151 2.754-.445.75-.296 1.394-.706 1.921-1.241.528-.53.985-1.171 1.368-1.925.383-.753.752-1.591 1.103-2.507l9.973-25.523h-4.256z" sketch:type="MSShapeGroup"/></g></svg>