<?xml version="1.0" encoding="UTF-8" standalone="no"?>
<svg width="600px" height="600px" viewBox="0 0 600 600" version="1.1" xmlns="http://www.w3.org/2000/svg" xmlns:xlink="http://www.w3.org/1999/xlink" xmlns:sketch="http://www.bohemiancoding.com/sketch/ns">
    <!-- Generator: Sketch 3.0.2 (7799) - http://www.bohemiancoding.com/sketch -->
    <title>Communicate</title>
    <description>Created with Sketch.</description>
    <defs></defs>
    <g id="Page-1" stroke="none" stroke-width="1" fill="none" fill-rule="evenodd" sketch:type="MSPage">
        <g id="Communicate" sketch:type="MSArtboardGroup" fill="#000000">
            <g id="icon_21419" sketch:type="MSLayerGroup" transform="translate(130.000000, 130.000000)">
                <g id="Group" sketch:type="MSShapeGroup">
                    <path d="M338.63814,105.66774 C336.5964,104.69988 334.1682,105.02478 332.41032,106.45092 L245.27556,179.06778 L188.613,150.7707 C185.75388,149.30694 182.2518,150.48342 180.7812,153.38358 C179.34822,156.24612 180.53496,159.7482 183.39408,161.2188 L243.45612,191.22588 C245.52522,192.26556 248.0355,191.98512 249.81732,190.51452 L330.3378,123.4107 L330.3378,258.33312 L245.27556,329.22972 L98.5473,255.87072 C96.47478,254.8242 93.97134,255.1149 92.18268,256.6197 L11.70324,323.68932 L11.70324,188.76006 L96.72444,117.86346 L153.38016,146.19474 C156.28032,147.6243 159.7824,146.48202 161.2188,143.58528 C162.64836,140.68512 161.50266,137.17962 158.60592,135.74664 L98.5473,105.70194 C96.47478,104.66226 93.97134,104.94954 92.18268,106.45092 L2.11698,181.5336 C0.79002,182.64168 0,184.29696 0,186.00696 L0,336.1689 C0,338.41926 1.32696,340.49862 3.36528,341.45964 C4.1553,341.81532 5.01372,342 5.8311,342 C7.18884,342 8.5158,341.53488 9.5931,340.64226 L96.72444,268.0254 L243.4527,341.39124 C245.5218,342.4275 248.03208,342.10602 249.8139,340.63884 L339.88302,265.55616 C341.24076,264.44808 341.99658,262.80306 341.99658,261.08964 L341.99658,110.92428 C342,108.6705 340.70724,106.59456 338.63814,105.66774 L338.63814,105.66774 Z" id="Shape"></path>
                    <path d="M90.10674,140.9724 L90.10674,231.0381 C90.10674,234.29736 92.71962,236.91024 95.93784,236.91024 C99.15606,236.91024 101.76894,234.29736 101.76894,231.0381 L101.76894,140.9724 C101.76894,137.75418 99.15606,135.1413 95.93784,135.1413 C92.71962,135.1413 90.10674,137.75418 90.10674,140.9724 L90.10674,140.9724 Z" id="Shape"></path>
                    <path d="M251.93088,306.12078 L251.93088,216.05166 C251.93088,212.8437 249.2838,210.18978 246.05874,210.18978 C242.84052,210.18978 240.23448,212.84028 240.23448,216.05166 L240.23448,306.12078 C240.23448,309.34584 242.84052,311.95188 246.05874,311.95188 C249.2838,311.95188 251.93088,309.34584 251.93088,306.12078 L251.93088,306.12078 Z" id="Shape"></path>
                    <path d="M165.1518,101.39958 L165.1518,216.04824 C165.1518,219.26646 167.79888,221.88618 171.0171,221.88618 C174.23532,221.88618 176.8482,219.26646 176.8482,216.04824 L176.8482,101.40642 C202.15278,98.49942 221.88276,76.9671 221.88276,50.86566 C221.88276,22.82508 199.0611,0 171.0171,0 C142.94232,0 120.11724,22.82508 120.11724,50.86566 C120.11724,76.95342 139.83012,98.4789 165.1518,101.39958 L165.1518,101.39958 Z M171.0171,11.65878 C192.62466,11.65878 210.22056,29.2581 210.22056,50.86566 C210.22056,72.50742 192.62466,90.06912 171.0171,90.06912 C149.37534,90.06912 131.81706,72.50742 131.81706,50.86566 C131.81364,29.26152 149.37534,11.65878 171.0171,11.65878 L171.0171,11.65878 Z" id="Shape"></path>
                    <path d="M161.82072,215.98326 C161.78652,212.79582 159.2181,210.18978 155.99304,210.18978 C152.77482,210.18978 150.16536,212.84028 150.16536,216.05166 C150.16536,224.42382 155.70576,236.91024 171.0171,236.91024 C186.2874,236.91024 191.86884,224.42724 191.86884,216.05166 C191.86884,212.8437 189.2628,210.25818 186.07878,210.22398 L186.00696,210.22398 C182.82294,210.22398 180.24768,212.79924 180.17244,215.98668 C180.13824,218.77056 179.1396,225.21042 171.0171,225.21042 C162.8946,225.21042 161.89596,218.77056 161.82072,215.98326 L161.82072,215.98326 Z" id="Shape"></path>
                </g>
            </g>
        </g>
    </g>
</svg>