<svg width="600" height="600" viewBox="0 0 600 600" xmlns="http://www.w3.org/2000/svg" xmlns:sketch="http://www.bohemiancoding.com/sketch/ns"><title>Analyse</title><path d="M357.834 217.396c-31.949-44.239-93.664-54.172-137.854-22.185-44.186 31.987-54.107 93.784-22.158 138.023 28.288 39.175 79.914 51.423 122.049 31.516-.466 1.526-.253 3.244.756 4.651 1.72 2.369 5.022 2.9 7.396 1.186l72.184 109.002c2.484 3.44 11.886.875 21.014-5.727 9.12-6.599 14.501-14.744 12.013-18.18l-80.764-102.788c2.366-1.714 2.901-5.032 1.181-7.409-1.001-1.403-2.57-2.135-4.168-2.176 32.083-33.824 36.648-86.74 8.352-125.914zm-28.729 128.921c-39.169 28.354-93.876 19.55-122.197-19.669-28.32-39.207-19.523-93.985 19.642-122.335 39.169-28.358 93.876-19.55 122.192 19.665 28.324 39.215 19.531 93.989-19.637 122.339zm159.62-164.27l-4.168-4.913-24.757 21.04c-2.832-2.602-6.574-4.226-10.726-4.226-3.436 0-6.595 1.113-9.202 2.97l-59.354-53.795c.915-2.009 1.451-4.226 1.451-6.578 0-8.812-7.134-15.95-15.931-15.95-8.797 0-15.927 7.143-15.927 15.95 0 4.447 1.826 8.464 4.76 11.356l-25.546 38.176 5.353 3.584 25.611-38.283c1.79.695 3.718 1.113 5.753 1.113 4.111 0 7.817-1.6 10.644-4.16l58.822 53.309c-1.463 2.414-2.358 5.22-2.358 8.251 0 8.808 7.134 15.95 15.927 15.95 8.801 0 15.931-7.143 15.931-15.95 0-2.32-.519-4.512-1.414-6.5l25.129-21.342zm-122.687-35.71c-5.402 0-9.782-4.385-9.782-9.794 0-5.408 4.38-9.794 9.782-9.794s9.782 4.385 9.782 9.794c0 5.408-4.38 9.794-9.782 9.794zm83.036 73.354c-5.398 0-9.778-4.385-9.778-9.794 0-5.408 4.376-9.794 9.778-9.794s9.786 4.385 9.786 9.794c0 5.408-4.38 9.794-9.786 9.794zm-245.116-15.165l-39.042-35.378c1.5-2.43 2.407-5.273 2.407-8.341 0-8.812-7.134-15.95-15.931-15.95-8.797 0-15.931 7.143-15.931 15.95 0 2.569.666 4.962 1.741 7.114l-27.895 23.703 4.164 4.909 27.728-23.564c2.77 2.328 6.297 3.784 10.195 3.784 3.404 0 6.542-1.088 9.128-2.905l39.12 35.452 4.319-4.774zm-62.345-43.72c0-5.408 4.376-9.794 9.778-9.794s9.786 4.385 9.786 9.794c0 5.408-4.38 9.794-9.786 9.794-5.398 0-9.778-4.385-9.778-9.794zm179.687 43.744c-4.862-3.183-9.296-5.024-9.896-4.103l-19.498 29.847c-5.635-2.688-11.919-4.238-18.575-4.238-9.402 0-18.077 3.031-25.174 8.129l-23.871-22.03c-.748-.691-4.544 2.217-8.483 6.496-3.939 4.275-6.529 8.305-5.782 8.992l24.508 22.619c-2.848 5.776-4.491 12.252-4.491 19.129 0 23.936 19.38 43.339 43.287 43.339s43.287-19.403 43.287-43.339c0-9.581-3.146-18.409-8.405-25.58l20.802-31.831v-.004c.605-.912-2.852-4.242-7.71-7.425zm-47.97 92.107c-15.041 0-27.233-12.207-27.233-27.266 0-15.059 12.193-27.266 27.233-27.266 15.041 0 27.233 12.203 27.233 27.266 0 15.059-12.193 27.266-27.233 27.266z" sketch:type="MSShapeGroup" fill="#000"/></svg>