<svg width="600" height="600" viewBox="0 0 600 600" xmlns="http://www.w3.org/2000/svg" xmlns:sketch="http://www.bohemiancoding.com/sketch/ns"><title>Collect</title><g sketch:type="MSArtboardGroup" fill="none"><rect fill="#000" sketch:type="MSShapeGroup" x="203" y="95" width="195" height="410" rx="31"/><rect fill="#fff" sketch:type="MSShapeGroup" x="283" y="126.922" width="35" height="8" rx="4"/><path fill="#fff" sketch:type="MSShapeGroup" d="M218 154.854h165v291h-165z"/><circle fill="#fff" sketch:type="MSShapeGroup" cx="300.5" cy="474.617" r="17.5"/><path d="M362.934 261.49c-4.644 2.06-9.636 3.452-14.874 4.078 5.347-3.205 9.454-8.28 11.387-14.328-5.004 2.968-10.547 5.123-16.446 6.284-4.724-5.034-11.454-8.178-18.903-8.178-14.302 0-25.898 11.595-25.898 25.897 0 2.03.229 4.007.671 5.902-21.524-1.08-40.606-11.391-53.38-27.059-2.229 3.825-3.507 8.273-3.507 13.02 0 8.985 4.572 16.912 11.521 21.556-4.245-.134-8.239-1.3-11.73-3.239l-.003.326c0 12.547 8.927 23.014 20.775 25.395-2.173.592-4.461.908-6.823.908-1.669 0-3.291-.163-4.873-.465 3.296 10.289 12.86 17.776 24.193 17.984-8.863 6.947-20.03 11.087-32.164 11.087-2.09 0-4.152-.123-6.178-.362 11.461 7.349 25.074 11.636 39.699 11.636 47.636 0 73.686-39.462 73.686-73.686 0-1.123-.025-2.239-.075-3.351 5.059-3.651 9.45-8.211 12.922-13.405z" sketch:type="MSShapeGroup" fill="#000"/></g></svg>