<svg width="600" height="600" viewBox="0 0 600 600" xmlns="http://www.w3.org/2000/svg"><title>Collect</title><g fill="none" fill-rule="evenodd"><rect fill="#000" x="203" y="95" width="195" height="410" rx="31"/><rect fill="#FFF" x="283" y="126.922" width="35" height="8" rx="4"/><path fill="#FFF" d="M218 154.854h165v291H218z"/><circle fill="#FFF" cx="300.5" cy="474.617" r="17.5"/><path d="M362.934 261.49c-4.644 2.06-9.636 3.452-14.874 4.078 5.347-3.205 9.454-8.28 11.387-14.328-5.005 2.968-10.547 5.123-16.446 6.284-4.723-5.033-11.454-8.178-18.903-8.178-14.302 0-25.898 11.595-25.898 25.898 0 2.03.228 4.006.67 5.902-21.524-1.08-40.607-11.39-53.38-27.06-2.23 3.825-3.507 8.274-3.507 13.02 0 8.985 4.572 16.912 11.522 21.556-4.246-.134-8.24-1.3-11.73-3.24-.004.11-.004.217-.004.327 0 12.546 8.93 23.013 20.776 25.393-2.173.592-4.46.91-6.823.91-1.67 0-3.29-.164-4.872-.466 3.297 10.29 12.86 17.776 24.194 17.984-8.864 6.948-20.03 11.088-32.164 11.088-2.09 0-4.152-.123-6.178-.362 11.46 7.35 25.074 11.636 39.7 11.636 47.635 0 73.685-39.462 73.685-73.686 0-1.123-.025-2.24-.075-3.35 5.06-3.652 9.45-8.212 12.922-13.406z" fill="#000"/></g></svg>