<svg width="600" height="600" viewBox="0 0 600 600" xmlns="http://www.w3.org/2000/svg"><title>Collect</title><g fill="none" fill-rule="evenodd"><g><rect fill="#000" x="203" y="95" width="195" height="410" rx="31"/><rect fill="#fff" x="283" y="126.922" width="35" height="8" rx="4"/><path fill="#fff" d="M218 154.854h165v291H218z"/><circle fill="#fff" cx="300.5" cy="474.617" r="17.5"/><g fill="#000"><g><path d="M362.934 261.49c-4.645 2.06-9.636 3.452-14.874 4.078 5.346-3.205 9.453-8.28 11.386-14.328-5.004 2.97-10.546 5.123-16.446 6.285-4.723-5.034-11.454-8.178-18.903-8.178-14.302 0-25.9 11.595-25.9 25.897 0 2.03.23 4.006.672 5.902-21.524-1.08-40.607-11.39-53.38-27.06-2.23 3.826-3.507 8.274-3.507 13.02 0 8.986 4.572 16.912 11.52 21.556-4.244-.134-8.238-1.3-11.73-3.24-.002.11-.002.218-.002.327 0 12.546 8.928 23.013 20.776 25.394-2.173.592-4.46.908-6.823.908-1.67 0-3.29-.163-4.873-.465 3.296 10.29 12.86 17.776 24.193 17.985-8.863 6.946-20.03 11.087-32.164 11.087-2.09 0-4.153-.124-6.18-.364 11.463 7.35 25.076 11.637 39.7 11.637 47.637 0 73.686-39.463 73.686-73.687 0-1.123-.025-2.24-.075-3.35 5.06-3.65 9.45-8.212 12.923-13.406z"/></g></g></g></g></svg>