<svg width="600" height="600" viewBox="0 0 600 600" xmlns="http://www.w3.org/2000/svg"><title>Communicate</title><g fill="#000" fill-rule="evenodd"><path d="M468.638 235.668c-2.042-.968-4.47-.643-6.228.783l-87.134 72.618-56.663-28.297c-2.86-1.463-6.36-.287-7.832 2.614-1.432 2.862-.245 6.364 2.614 7.835l60.062 30.006c2.07 1.04 4.58.76 6.36-.71l80.522-67.105v134.923l-85.062 70.897-146.73-73.36c-2.07-1.046-4.575-.755-6.363.75l-80.48 67.07V318.76l85.02-70.897 56.657 28.332c2.9 1.43 6.402.287 7.84-2.61 1.428-2.9.283-6.405-2.614-7.838l-60.06-30.045c-2.07-1.04-4.575-.752-6.363.75l-90.066 75.082c-1.327 1.108-2.117 2.763-2.117 4.473V466.17c0 2.25 1.327 4.33 3.365 5.29.79.355 1.65.54 2.466.54 1.36 0 2.686-.465 3.763-1.358l87.13-72.617 146.73 73.366c2.07 1.037 4.58.716 6.36-.75l90.07-75.084c1.358-1.108 2.114-2.753 2.114-4.466V240.924c.003-2.254-1.29-4.33-3.36-5.256z"/><path d="M220.107 270.972v90.066c0 3.26 2.613 5.872 5.83 5.872 3.22 0 5.832-2.613 5.832-5.872v-90.066c0-3.218-2.614-5.83-5.832-5.83s-5.83 2.612-5.83 5.83zM381.93 436.12v-90.068c0-3.208-2.646-5.862-5.87-5.862-3.22 0-5.826 2.65-5.826 5.862v90.07c0 3.224 2.607 5.83 5.825 5.83 3.224 0 5.87-2.606 5.87-5.83zM295.152 231.4v114.648c0 3.218 2.647 5.838 5.865 5.838 3.218 0 5.83-2.62 5.83-5.838V231.406c25.306-2.907 45.036-24.44 45.036-50.54 0-28.04-22.822-50.866-50.866-50.866-28.075 0-50.9 22.825-50.9 50.866 0 26.087 19.713 47.613 45.035 50.534zm5.865-89.74c21.608 0 39.204 17.598 39.204 39.206 0 21.64-17.595 39.203-39.203 39.203-21.642 0-39.2-17.563-39.2-39.204-.003-21.604 17.558-39.207 39.2-39.207z"/><path d="M291.82 345.983c-.033-3.187-2.602-5.793-5.827-5.793-3.218 0-5.828 2.65-5.828 5.862 0 8.372 5.54 20.858 20.852 20.858 15.27 0 20.852-12.483 20.852-20.858 0-3.208-2.607-5.794-5.79-5.828h-.073c-3.184 0-5.76 2.575-5.835 5.763-.034 2.784-1.032 9.223-9.155 9.223-8.122 0-9.12-6.44-9.196-9.227z"/></g></svg>