<svg width="600" height="600" viewBox="0 0 600 600" xmlns="http://www.w3.org/2000/svg" xmlns:sketch="http://www.bohemiancoding.com/sketch/ns"><title>Communicate</title><g sketch:type="MSShapeGroup" fill="#000"><path d="M468.638 235.668c-2.042-.968-4.47-.643-6.228.783l-87.135 72.617-56.663-28.297c-2.859-1.464-6.361-.287-7.832 2.613-1.433 2.863-.246 6.365 2.613 7.835l60.062 30.007c2.069 1.04 4.579.759 6.361-.711l80.52-67.104v134.922l-85.062 70.897-146.728-73.359c-2.073-1.047-4.576-.756-6.365.749l-80.479 67.07v-134.929l85.021-70.897 56.656 28.331c2.9 1.43 6.402.287 7.839-2.609 1.43-2.9.284-6.406-2.613-7.839l-60.059-30.045c-2.073-1.04-4.576-.752-6.365.749l-90.066 75.083c-1.327 1.108-2.117 2.763-2.117 4.473v150.162c0 2.25 1.327 4.33 3.365 5.291.79.356 1.648.54 2.466.54 1.358 0 2.685-.465 3.762-1.358l87.131-72.617 146.728 73.366c2.069 1.036 4.579.715 6.361-.752l90.069-75.083c1.358-1.108 2.114-2.753 2.114-4.467v-150.165c.003-2.254-1.289-4.33-3.358-5.257zM220.107 270.972v90.066c0 3.259 2.613 5.872 5.831 5.872 3.218 0 5.831-2.613 5.831-5.872v-90.066c0-3.218-2.613-5.831-5.831-5.831-3.218 0-5.831 2.613-5.831 5.831zM381.931 436.121v-90.069c0-3.208-2.647-5.862-5.872-5.862-3.218 0-5.824 2.65-5.824 5.862v90.069c0 3.225 2.606 5.831 5.824 5.831 3.225 0 5.872-2.606 5.872-5.831zM295.152 231.4v114.649c0 3.218 2.647 5.838 5.865 5.838 3.218 0 5.831-2.62 5.831-5.838v-114.642c25.305-2.907 45.035-24.439 45.035-50.541 0-28.041-22.822-50.866-50.866-50.866-28.075 0-50.9 22.825-50.9 50.866 0 26.088 19.713 47.613 45.035 50.534zm5.865-89.741c21.608 0 39.203 17.599 39.203 39.207 0 21.642-17.596 39.203-39.203 39.203-21.642 0-39.2-17.562-39.2-39.203-.003-21.604 17.558-39.207 39.2-39.207zM291.821 345.983c-.034-3.187-2.603-5.793-5.828-5.793-3.218 0-5.828 2.65-5.828 5.862 0 8.372 5.54 20.859 20.852 20.859 15.27 0 20.852-12.483 20.852-20.859 0-3.208-2.606-5.793-5.79-5.828h-.072c-3.184 0-5.759 2.575-5.835 5.763-.034 2.784-1.033 9.224-9.155 9.224-8.123 0-9.121-6.44-9.196-9.227z"/></g></svg>