<svg width="177" height="43" viewBox="0 0 177 43" xmlns="http://www.w3.org/2000/svg"><title>logo-light</title><g fill="#FFF" fill-rule="evenodd"><path d="M18.758 29.127c-1.004 1.213-2.143 2.105-3.412 2.68-1.27.578-2.643.864-4.12.864-1.568 0-3.015-.264-4.345-.794-1.325-.533-2.466-1.278-3.41-2.24-.944-.96-1.687-2.097-2.214-3.412C.72 24.91.46 23.472.46 21.904c0-1.566.26-3.006.796-4.32.527-1.315 1.27-2.452 2.213-3.413.944-.96 2.085-1.706 3.41-2.238 1.33-.532 2.778-.796 4.347-.796 1.506 0 2.898.31 4.187.93 1.285.622 2.426 1.493 3.432 2.614l-2.127 1.596c-.77-.856-1.61-1.528-2.526-2.016-.916-.488-1.907-.733-2.967-.733-1.244 0-2.365.224-3.367.667-1.006.442-1.862 1.04-2.573 1.793-.71.754-1.248 1.64-1.617 2.66-.37 1.018-.555 2.105-.555 3.257 0 1.154.184 2.238.555 3.256.37 1.022.908 1.906 1.617 2.66.71.753 1.567 1.352 2.573 1.795 1.002.444 2.123.664 3.367.664 1.12 0 2.148-.257 3.08-.775.93-.517 1.736-1.205 2.412-2.06l2.038 1.682zM24.43 21.905c0 1.153.184 2.237.553 3.256.37 1.022.908 1.907 1.62 2.66.708.754 1.563 1.353 2.57 1.796 1 .443 2.122.664 3.366.664 1.242 0 2.363-.22 3.367-.664 1.003-.443 1.863-1.042 2.57-1.796.71-.753 1.248-1.638 1.62-2.66.366-1.018.55-2.102.55-3.255 0-1.152-.184-2.24-.55-3.258-.372-1.02-.91-1.905-1.62-2.66-.707-.753-1.567-1.35-2.57-1.792-1.004-.443-2.125-.667-3.368-.667-1.245 0-2.366.224-3.368.667-1.006.44-1.86 1.04-2.57 1.793-.71.754-1.25 1.64-1.62 2.66-.368 1.018-.552 2.105-.552 3.257m-2.658 0c0-1.566.263-3.006.797-4.32.53-1.316 1.266-2.452 2.212-3.413.945-.96 2.086-1.707 3.414-2.24 1.33-.53 2.777-.796 4.343-.796 1.564 0 3.003.265 4.322.796 1.312.533 2.45 1.28 3.41 2.24.96.96 1.707 2.097 2.236 3.412.533 1.315.8 2.755.8 4.32 0 1.568-.267 3.008-.8 4.32-.53 1.316-1.275 2.452-2.236 3.413-.96.96-2.098 1.706-3.41 2.24-1.32.53-2.758.795-4.323.795-1.567 0-3.014-.265-4.344-.795-1.328-.534-2.47-1.28-3.414-2.24-.946-.96-1.682-2.097-2.213-3.413-.535-1.312-.798-2.752-.798-4.32M74.398 17.43c0-.385-.014-.852-.043-1.397-.03-.546-.055-1.1-.068-1.663-.016-.56-.037-1.084-.065-1.572-.03-.488-.043-.866-.043-1.13h2.656c.03.768.05 1.505.066 2.217.014.708.053 1.165.11 1.373h.134c.53-1.124 1.418-2.09 2.66-2.904 1.238-.814 2.688-1.218 4.34-1.218 1.598 0 2.895.25 3.902.754 1.004.504 1.79 1.16 2.37 1.97.576.812.972 1.753 1.197 2.815.22 1.064.332 2.155.332 3.28V32.14H89.29V20.086c0-.824-.078-1.63-.224-2.412-.148-.782-.404-1.486-.775-2.105-.367-.62-.884-1.117-1.55-1.487-.664-.366-1.53-.552-2.594-.552-.973 0-1.896.172-2.77.51-.87.34-1.623.858-2.255 1.55-.64.696-1.142 1.568-1.51 2.615-.37 1.05-.554 2.285-.554 3.702V32.14h-2.658V17.43zM99.48 11.67h2.658v20.47H99.48V11.67zm-.662-8.113c0-.56.19-1.032.573-1.418.387-.384.86-.576 1.42-.576.56 0 1.034.192 1.42.575.38.385.577.858.577 1.417 0 .562-.196 1.034-.578 1.42-.386.384-.86.575-1.42.575-.56 0-1.033-.19-1.42-.575-.382-.386-.572-.858-.572-1.42zM124.164 16.72c-.74-.77-1.516-1.352-2.326-1.75-.813-.4-1.783-.6-2.904-.6-1.092 0-2.045.2-2.856.6-.816.398-1.494.944-2.043 1.637-.543.696-.96 1.494-1.24 2.394-.28.902-.416 1.84-.416 2.816 0 .973.16 1.898.483 2.77.326.87.783 1.632 1.373 2.28.588.652 1.3 1.162 2.13 1.53.825.37 1.757.555 2.79.555 1.12 0 2.082-.198 2.88-.597.798-.4 1.534-.985 2.216-1.75l2.836 2.834c-1.037 1.152-2.237 1.98-3.61 2.48-1.377.505-2.834.754-4.37.754-1.622 0-3.106-.263-4.452-.794-1.34-.533-2.504-1.278-3.478-2.24-.977-.96-1.727-2.11-2.26-3.454-.53-1.347-.795-2.83-.795-4.455 0-1.623.266-3.116.795-4.477.533-1.357 1.275-2.525 2.24-3.5.96-.976 2.11-1.734 3.455-2.283 1.346-.546 2.846-.82 4.496-.82 1.534 0 3.01.274 4.41.82 1.404.55 2.623 1.38 3.658 2.504l-3.014 2.75zM130.812 11.136h3.988V32.14h-3.988V11.137zm-.93-7.535c0-.794.286-1.48.862-2.06.576-.575 1.262-.863 2.063-.863.797 0 1.482.288 2.06.864.576.58.863 1.266.863 2.06 0 .8-.287 1.487-.863 2.063-.578.575-1.263.863-2.06.863-.8 0-1.487-.288-2.063-.863-.576-.576-.863-1.263-.863-2.062zM152.393 14.593h-5.715v9.527c0 .59.014 1.174.043 1.75.028.577.142 1.094.33 1.55.193.46.49.83.888 1.11.396.28.982.42 1.752.42.47 0 .96-.044 1.463-.132.5-.09.96-.25 1.375-.49v3.637c-.48.266-1.088.45-1.84.552-.754.104-1.34.154-1.754.154-1.537 0-2.723-.21-3.566-.64-.84-.43-1.46-.98-1.862-1.66-.398-.68-.634-1.442-.71-2.285-.07-.843-.108-1.688-.108-2.547V14.593h-4.608v-3.457h4.608V5.242h3.99v5.894h5.715v3.457zM64.674 24.806c-.432.992-1.008 1.85-1.73 2.57-.725.725-1.58 1.3-2.57 1.73-.993.43-2.048.64-3.17.64-1.12 0-2.178-.21-3.165-.64-.993-.43-1.85-1.005-2.575-1.73-.725-.72-1.3-1.578-1.727-2.57-.427-.99-.64-2.045-.64-3.17 0-1.12.213-2.178.64-3.168.426-.986 1.002-1.843 1.727-2.567.725-.724 1.582-1.3 2.574-1.73.986-.427 2.044-.642 3.165-.642 1.12 0 2.176.215 3.168.643.99.43 1.846 1.006 2.572 1.73.72.725 1.297 1.582 1.73 2.568.425.99.64 2.048.64 3.17 0 1.123-.215 2.18-.64 3.168zm.55-13.137v3.454h-.085c-.77-1.24-1.814-2.215-3.126-2.924-1.315-.71-2.86-1.064-4.633-1.064-1.503 0-2.925.28-4.253.843-1.328.558-2.486 1.31-3.478 2.257-.99.947-1.773 2.055-2.347 3.323-.578 1.27-.867 2.63-.867 4.077 0 1.45.29 2.807.867 4.077.574 1.27 1.357 2.387 2.346 3.348.99.96 2.15 1.712 3.477 2.258 1.328.548 2.75.82 4.254.82 1.774 0 3.32-.354 4.634-1.063 1.312-.708 2.355-1.684 3.125-2.923h.085v2.835c0 .382-.016.886-.045 1.503-.027.623-.125 1.28-.29 1.974-.16.696-.413 1.39-.75 2.085-.34.692-.814 1.325-1.42 1.903-.603.578-1.372 1.042-2.302 1.397-.887.336-1.978.504-3.258.52h-8.062v2.39h8.062c.99-.015 2.077-.15 3.28-.43 1.267-.296 2.46-.87 3.564-1.727 1.113-.86 2.035-2.066 2.77-3.636.74-1.565 1.113-3.618 1.113-6.157V11.67h-2.662zM171.935 11.136l-5.965 16.396h-.09l-6.22-16.396h-4.61l8.696 21.14-1.293 3.32c-.206.533-.41 1.006-.618 1.42-.203.413-.464.775-.77 1.087-.31.31-.672.544-1.1.707-.33.126-.77.162-1.22.19h-6.218v3.777h6.218c.106.003.22 0 .327 0 1.084 0 2.006-.15 2.755-.445.75-.296 1.393-.706 1.92-1.24.528-.53.985-1.172 1.368-1.926.383-.753.752-1.59 1.103-2.507l9.974-25.524h-4.257z"/></g></svg>