<?xml version="1.0" encoding="UTF-8" standalone="no"?>
<svg width="600px" height="600px" viewBox="0 0 600 600" version="1.1" xmlns="http://www.w3.org/2000/svg" xmlns:xlink="http://www.w3.org/1999/xlink" xmlns:sketch="http://www.bohemiancoding.com/sketch/ns">
    <!-- Generator: Sketch 3.0.2 (7799) - http://www.bohemiancoding.com/sketch -->
    <title>Collect</title>
    <description>Created with Sketch.</description>
    <defs></defs>
    <g id="Page-1" stroke="none" stroke-width="1" fill="none" fill-rule="evenodd" sketch:type="MSPage">
        <g id="Collect" sketch:type="MSArtboardGroup">
            <rect id="Rectangle-1" fill="#000000" sketch:type="MSShapeGroup" x="203" y="95" width="195" height="410" rx="31"></rect>
            <rect id="Rectangle-3" fill="#FFFFFF" sketch:type="MSShapeGroup" x="283" y="126.922141" width="35" height="8" rx="4"></rect>
            <rect id="Rectangle-2" fill="#FFFFFF" sketch:type="MSShapeGroup" x="218" y="154.854015" width="165" height="291"></rect>
            <circle id="Oval-2" fill="#FFFFFF" sketch:type="MSShapeGroup" cx="300.5" cy="474.616788" r="17.5"></circle>
            <g id="Twitter_bird_logo_2012" sketch:type="MSLayerGroup" transform="translate(237.000000, 250.000000)" fill="#000000">
                <g id="layer1" transform="translate(-0.320530, -0.307340)" sketch:type="MSShapeGroup">
                    <path d="M126.254559,11.79722 C121.610468,13.8573292 116.618613,15.2490403 111.380603,15.8751538 C116.727177,12.6701077 120.834139,7.59494238 122.767388,1.54715806 C117.76291,4.51550616 112.220678,6.67029011 106.321218,7.83163298 C101.597599,2.79811922 94.8668952,-0.34633 87.4179273,-0.34633 C73.1158101,-0.34633 61.5194792,11.2487349 61.5194792,25.5508595 C61.5194792,27.5806739 61.7485888,29.5574725 62.1904019,31.4528521 C40.6665274,30.3729356 21.583993,20.0622768 8.81054627,4.39369419 C6.58128405,8.21853137 5.3038113,12.6669576 5.3038113,17.4132968 C5.3038113,26.3985089 9.87594841,34.3252669 16.825031,38.9693503 C12.5798431,38.8349155 8.58648583,37.6697895 5.09489824,35.7302337 C5.09195415,35.8381569 5.09195415,35.9467131 5.09195415,36.0559096 C5.09195415,48.6034044 14.0191086,59.0699531 25.8666372,61.4506964 C23.6935483,62.0427247 21.4055882,62.3589354 19.0437754,62.3589354 C17.3749881,62.3589354 15.7529089,62.1960974 14.1712154,61.8944012 C17.4671383,72.1829646 27.0311302,79.670434 38.3642663,79.878714 C29.5008662,86.8252794 18.3343586,90.9657016 6.20027385,90.9657016 C4.10986257,90.9657016 2.04849479,90.8426237 0.0224635252,90.6034085 C11.4837267,97.952027 25.0966162,102.239507 39.7218921,102.239507 C87.3575438,102.239507 113.407473,62.7774018 113.407473,28.5532928 C113.407473,27.4304587 113.382227,26.3139324 113.332369,25.2024625 C118.391754,21.5518201 122.782115,16.9910398 126.254139,11.79722 L126.254559,11.79722 Z" id="path5"></path>
                </g>
            </g>
        </g>
    </g>
</svg>