<?xml version="1.0" encoding="UTF-8" standalone="no"?>
<svg width="177px" height="43px" viewBox="0 0 177 43" version="1.1" xmlns="http://www.w3.org/2000/svg" xmlns:xlink="http://www.w3.org/1999/xlink" xmlns:sketch="http://www.bohemiancoding.com/sketch/ns">
    <!-- Generator: Sketch 3.0.4 (8053) - http://www.bohemiancoding.com/sketch -->
    <title>logo-light</title>
    <desc>Created with Sketch.</desc>
    <defs></defs>
    <g id="Page-1" stroke="none" stroke-width="1" fill="none" fill-rule="evenodd" sketch:type="MSPage">
        <g id="Logo-Light" sketch:type="MSArtboardGroup" transform="translate(-9.000000, -5.000000)" fill="#FFFFFF">
            <g id="Logo" sketch:type="MSLayerGroup" transform="translate(9.000000, 6.000000)">
                <path d="M18.7578,28.1274 C17.7538,29.3404 16.6148,30.2324 15.3458,30.8084 C14.0758,31.3854 12.7028,31.6714 11.2268,31.6714 C9.6578,31.6714 8.2108,31.4064 6.8808,30.8764 C5.5548,30.3434 4.4138,29.5984 3.4688,28.6374 C2.5258,27.6764 1.7828,26.5394 1.2558,25.2244 C0.7208,23.9114 0.4588,22.4724 0.4588,20.9044 C0.4588,19.3384 0.7208,17.8984 1.2558,16.5834 C1.7828,15.2694 2.5258,14.1324 3.4688,13.1714 C4.4138,12.2104 5.5548,11.4644 6.8808,10.9324 C8.2108,10.4004 9.6578,10.1364 11.2268,10.1364 C12.7328,10.1364 14.1248,10.4454 15.4138,11.0654 C16.6988,11.6884 17.8398,12.5594 18.8458,13.6804 L16.7188,15.2764 C15.9508,14.4204 15.1098,13.7484 14.1938,13.2604 C13.2778,12.7724 12.2868,12.5274 11.2268,12.5274 C9.9828,12.5274 8.8618,12.7514 7.8598,13.1944 C6.8538,13.6364 5.9978,14.2334 5.2868,14.9874 C4.5778,15.7414 4.0388,16.6264 3.6698,17.6474 C3.2988,18.6654 3.1148,19.7524 3.1148,20.9044 C3.1148,22.0584 3.2988,23.1424 3.6698,24.1604 C4.0388,25.1824 4.5778,26.0664 5.2868,26.8194 C5.9978,27.5734 6.8538,28.1724 7.8598,28.6154 C8.8618,29.0594 9.9828,29.2794 11.2268,29.2794 C12.3478,29.2794 13.3748,29.0234 14.3068,28.5054 C15.2368,27.9884 16.0428,27.3004 16.7188,26.4444 L18.7578,28.1274 Z" id="Fill-1" sketch:type="MSShapeGroup"></path>
                <path d="M24.4297,20.9048 C24.4297,22.0578 24.6137,23.1418 24.9827,24.1608 C25.3517,25.1818 25.8907,26.0668 26.6017,26.8198 C27.3107,27.5738 28.1657,28.1728 29.1717,28.6158 C30.1737,29.0588 31.2947,29.2798 32.5387,29.2798 C33.7817,29.2798 34.9027,29.0588 35.9067,28.6158 C36.9097,28.1728 37.7697,27.5738 38.4767,26.8198 C39.1877,26.0668 39.7247,25.1818 40.0957,24.1608 C40.4627,23.1418 40.6467,22.0578 40.6467,20.9048 C40.6467,19.7528 40.4627,18.6658 40.0957,17.6468 C39.7247,16.6268 39.1877,15.7418 38.4767,14.9878 C37.7697,14.2338 36.9097,13.6358 35.9067,13.1948 C34.9027,12.7518 33.7817,12.5278 32.5387,12.5278 C31.2947,12.5278 30.1737,12.7518 29.1717,13.1948 C28.1657,13.6358 27.3107,14.2338 26.6017,14.9878 C25.8907,15.7418 25.3517,16.6268 24.9827,17.6468 C24.6137,18.6658 24.4297,19.7528 24.4297,20.9048 M21.7717,20.9048 C21.7717,19.3388 22.0347,17.8988 22.5687,16.5838 C23.0997,15.2688 23.8357,14.1328 24.7817,13.1718 C25.7267,12.2108 26.8677,11.4648 28.1957,10.9318 C29.5257,10.4008 30.9727,10.1358 32.5387,10.1358 C34.1037,10.1358 35.5427,10.4008 36.8617,10.9318 C38.1737,11.4648 39.3107,12.2108 40.2717,13.1718 C41.2327,14.1328 41.9787,15.2688 42.5077,16.5838 C43.0407,17.8988 43.3087,19.3388 43.3087,20.9048 C43.3087,22.4718 43.0407,23.9118 42.5077,25.2238 C41.9787,26.5398 41.2327,27.6758 40.2717,28.6368 C39.3107,29.5978 38.1737,30.3428 36.8617,30.8768 C35.5427,31.4068 34.1037,31.6718 32.5387,31.6718 C30.9727,31.6718 29.5257,31.4068 28.1957,30.8768 C26.8677,30.3428 25.7267,29.5978 24.7817,28.6368 C23.8357,27.6758 23.0997,26.5398 22.5687,25.2238 C22.0347,23.9118 21.7717,22.4718 21.7717,20.9048" id="Fill-3" sketch:type="MSShapeGroup"></path>
                <path d="M74.3984,16.4292 C74.3984,16.0452 74.3844,15.5782 74.3554,15.0332 C74.3244,14.4872 74.3004,13.9322 74.2874,13.3702 C74.2714,12.8092 74.2504,12.2862 74.2224,11.7982 C74.1934,11.3102 74.1794,10.9322 74.1794,10.6692 L76.8364,10.6692 C76.8654,11.4362 76.8864,12.1732 76.9024,12.8852 C76.9164,13.5932 76.9554,14.0502 77.0114,14.2582 L77.1464,14.2582 C77.6774,13.1342 78.5644,12.1682 79.8064,11.3542 C81.0444,10.5402 82.4944,10.1362 84.1464,10.1362 C85.7444,10.1362 87.0414,10.3852 88.0484,10.8902 C89.0524,11.3942 89.8394,12.0502 90.4184,12.8612 C90.9944,13.6722 91.3904,14.6132 91.6154,15.6752 C91.8354,16.7392 91.9474,17.8302 91.9474,18.9542 L91.9474,31.1412 L89.2894,31.1412 L89.2894,19.0852 C89.2894,18.2612 89.2124,17.4552 89.0664,16.6732 C88.9184,15.8912 88.6624,15.1872 88.2914,14.5682 C87.9234,13.9482 87.4064,13.4512 86.7404,13.0812 C86.0764,12.7142 85.2114,12.5282 84.1464,12.5282 C83.1734,12.5282 82.2504,12.7002 81.3754,13.0392 C80.5074,13.3782 79.7534,13.8962 79.1214,14.5882 C78.4804,15.2842 77.9784,16.1562 77.6114,17.2032 C77.2404,18.2532 77.0564,19.4882 77.0564,20.9052 L77.0564,31.1412 L74.3984,31.1412 L74.3984,16.4292 Z" id="Fill-5" sketch:type="MSShapeGroup"></path>
                <path d="M99.48,10.669 L102.138,10.669 L102.138,31.141 L99.48,31.141 L99.48,10.669 Z M98.818,2.557 C98.818,1.998 99.008,1.525 99.391,1.139 C99.777,0.756 100.25,0.564 100.811,0.564 C101.371,0.564 101.844,0.756 102.229,1.139 C102.611,1.525 102.807,1.998 102.807,2.557 C102.807,3.119 102.611,3.591 102.229,3.977 C101.844,4.361 101.371,4.552 100.811,4.552 C100.25,4.552 99.777,4.361 99.391,3.977 C99.008,3.591 98.818,3.119 98.818,2.557 L98.818,2.557 Z" id="Fill-7" sketch:type="MSShapeGroup"></path>
                <path d="M124.1641,15.7202 C123.4241,14.9502 122.6481,14.3682 121.8381,13.9692 C121.0251,13.5702 120.0551,13.3702 118.9341,13.3702 C117.8421,13.3702 116.8891,13.5702 116.0781,13.9692 C115.2621,14.3682 114.5841,14.9142 114.0351,15.6072 C113.4921,16.3032 113.0761,17.1012 112.7951,18.0012 C112.5161,18.9022 112.3791,19.8392 112.3791,20.8162 C112.3791,21.7892 112.5391,22.7142 112.8631,23.5852 C113.1891,24.4572 113.6461,25.2182 114.2361,25.8662 C114.8241,26.5182 115.5371,27.0282 116.3651,27.3952 C117.1911,27.7652 118.1231,27.9512 119.1561,27.9512 C120.2771,27.9512 121.2381,27.7522 122.0351,27.3532 C122.8341,26.9532 123.5701,26.3682 124.2521,25.6022 L127.0881,28.4372 C126.0511,29.5892 124.8511,30.4162 123.4781,30.9182 C122.1011,31.4222 120.6441,31.6712 119.1091,31.6712 C117.4861,31.6712 116.0021,31.4072 114.6561,30.8762 C113.3161,30.3432 112.1521,29.5982 111.1781,28.6372 C110.2011,27.6762 109.4511,26.5262 108.9181,25.1822 C108.3891,23.8352 108.1231,22.3522 108.1231,20.7272 C108.1231,19.1042 108.3891,17.6112 108.9181,16.2502 C109.4511,14.8932 110.1931,13.7252 111.1581,12.7512 C112.1191,11.7742 113.2681,11.0162 114.6131,10.4672 C115.9591,9.9212 117.4591,9.6482 119.1091,9.6482 C120.6441,9.6482 122.1191,9.9212 123.5191,10.4672 C124.9241,11.0162 126.1431,11.8482 127.1781,12.9712 L124.1641,15.7202 Z" id="Fill-9" sketch:type="MSShapeGroup"></path>
                <path d="M130.812,10.136 L134.8,10.136 L134.8,31.141 L130.812,31.141 L130.812,10.136 Z M129.881,2.601 C129.881,1.806 130.168,1.119 130.744,0.541 C131.32,-0.035 132.006,-0.323 132.807,-0.323 C133.604,-0.323 134.289,-0.035 134.867,0.541 C135.443,1.119 135.73,1.806 135.73,2.601 C135.73,3.4 135.443,4.087 134.867,4.663 C134.289,5.238 133.604,5.526 132.807,5.526 C132.006,5.526 131.32,5.238 130.744,4.663 C130.168,4.087 129.881,3.4 129.881,2.601 L129.881,2.601 Z" id="Fill-10" sketch:type="MSShapeGroup"></path>
                <path d="M152.3926,13.5933 L146.6776,13.5933 L146.6776,23.1203 C146.6776,23.7113 146.6916,24.2943 146.7206,24.8693 C146.7476,25.4473 146.8616,25.9643 147.0506,26.4213 C147.2426,26.8803 147.5386,27.2503 147.9376,27.5293 C148.3336,27.8103 148.9196,27.9513 149.6896,27.9513 C150.1606,27.9513 150.6486,27.9063 151.1526,27.8183 C151.6526,27.7283 152.1136,27.5683 152.5276,27.3293 L152.5276,30.9653 C152.0486,31.2313 151.4396,31.4143 150.6876,31.5173 C149.9336,31.6213 149.3476,31.6713 148.9336,31.6713 C147.3966,31.6713 146.2106,31.4593 145.3676,31.0303 C144.5276,30.6003 143.9086,30.0493 143.5056,29.3693 C143.1076,28.6893 142.8716,27.9283 142.7946,27.0853 C142.7246,26.2423 142.6876,25.3973 142.6876,24.5383 L142.6876,13.5933 L138.0796,13.5933 L138.0796,10.1363 L142.6876,10.1363 L142.6876,4.2423 L146.6776,4.2423 L146.6776,10.1363 L152.3926,10.1363 L152.3926,13.5933 Z" id="Fill-11" sketch:type="MSShapeGroup"></path>
                <path d="M64.6738,23.8062 C64.2418,24.7982 63.6658,25.6552 62.9448,26.3762 C62.2188,27.1012 61.3628,27.6762 60.3728,28.1072 C59.3808,28.5352 58.3258,28.7472 57.2048,28.7472 C56.0838,28.7472 55.0258,28.5352 54.0388,28.1072 C53.0468,27.6762 52.1898,27.1012 51.4648,26.3762 C50.7398,25.6552 50.1638,24.7982 49.7378,23.8062 C49.3108,22.8172 49.0978,21.7612 49.0978,20.6372 C49.0978,19.5162 49.3108,18.4582 49.7378,17.4682 C50.1638,16.4822 50.7398,15.6252 51.4648,14.9012 C52.1898,14.1762 53.0468,13.5992 54.0388,13.1712 C55.0258,12.7432 56.0838,12.5282 57.2048,12.5282 C58.3258,12.5282 59.3808,12.7432 60.3728,13.1712 C61.3628,13.5992 62.2188,14.1762 62.9448,14.9012 C63.6658,15.6252 64.2418,16.4822 64.6738,17.4682 C65.0998,18.4582 65.3148,19.5162 65.3148,20.6372 C65.3148,21.7612 65.0998,22.8172 64.6738,23.8062 L64.6738,23.8062 Z M65.2248,10.6692 L65.2248,14.1242 L65.1388,14.1242 C64.3688,12.8852 63.3258,11.9092 62.0138,11.2002 C60.6988,10.4912 59.1538,10.1362 57.3808,10.1362 C55.8768,10.1362 54.4548,10.4172 53.1268,10.9792 C51.7988,11.5382 50.6408,12.2912 49.6488,13.2372 C48.6598,14.1842 47.8768,15.2922 47.3028,16.5602 C46.7248,17.8302 46.4358,19.1912 46.4358,20.6372 C46.4358,22.0862 46.7248,23.4442 47.3028,24.7142 C47.8768,25.9852 48.6598,27.1012 49.6488,28.0622 C50.6408,29.0232 51.7988,29.7742 53.1268,30.3202 C54.4548,30.8682 55.8768,31.1412 57.3808,31.1412 C59.1538,31.1412 60.6988,30.7862 62.0138,30.0772 C63.3258,29.3692 64.3688,28.3932 65.1388,27.1542 L65.2248,27.1542 L65.2248,29.9892 C65.2248,30.3722 65.2088,30.8762 65.1798,31.4932 C65.1528,32.1162 65.0548,32.7742 64.8908,33.4672 C64.7308,34.1632 64.4768,34.8562 64.1388,35.5522 C63.7988,36.2442 63.3258,36.8772 62.7208,37.4552 C62.1168,38.0332 61.3478,38.4972 60.4178,38.8522 C59.5308,39.1882 58.4398,39.3562 57.1598,39.3712 L49.0978,39.3712 L49.0978,41.7632 L57.1598,41.7632 C58.1508,41.7472 59.2368,41.6112 60.4398,41.3322 C61.7068,41.0362 62.8988,40.4632 64.0038,39.6052 C65.1168,38.7462 66.0388,37.5392 66.7738,35.9692 C67.5138,34.4052 67.8868,32.3522 67.8868,29.8132 L67.8868,10.6692 L65.2248,10.6692 Z" id="Fill-12" sketch:type="MSShapeGroup"></path>
                <path d="M171.9355,10.1362 L165.9705,26.5322 L165.8785,26.5322 L159.6605,10.1362 L155.0505,10.1362 L163.7465,31.2752 L162.4535,34.5962 C162.2475,35.1292 162.0445,35.6022 161.8355,36.0162 C161.6325,36.4292 161.3715,36.7912 161.0645,37.1032 C160.7555,37.4132 160.3925,37.6472 159.9645,37.8102 C159.6345,37.9362 159.1955,37.9722 158.7445,38.0012 L152.5275,38.0012 L152.5275,41.7772 L158.7445,41.7772 C158.8515,41.7802 158.9645,41.7772 159.0725,41.7772 C160.1565,41.7772 161.0785,41.6262 161.8265,41.3322 C162.5765,41.0362 163.2205,40.6262 163.7475,40.0912 C164.2755,39.5612 164.7325,38.9202 165.1155,38.1662 C165.4985,37.4132 165.8675,36.5752 166.2185,35.6592 L176.1915,10.1362 L171.9355,10.1362 Z" id="Fill-13" sketch:type="MSShapeGroup"></path>
            </g>
        </g>
    </g>
</svg>